<?xml version="1.0" standalone="no"?>
<!DOCTYPE svg PUBLIC "-//W3C//DTD SVG 20010904//EN"
 "http://www.w3.org/TR/2001/REC-SVG-20010904/DTD/svg10.dtd">
<svg version="1.0" xmlns="http://www.w3.org/2000/svg"
 width="1080.000000pt" height="1080.000000pt" viewBox="0 0 1080.000000 1080.000000"
 preserveAspectRatio="xMidYMid meet">
<metadata>
Created by potrace 1.14, written by Peter Selinger 2001-2017
</metadata>
<g transform="translate(0.000000,1080.000000) scale(0.100000,-0.100000)"
fill="#000000" stroke="none">
<path d="M5138 8905 c-4 -5 -85 -16 -138 -20 -25 -2 -52 -5 -60 -8 -22 -7
-123 -30 -140 -32 -8 -1 -22 -5 -30 -8 -8 -4 -26 -8 -40 -9 -14 -2 -27 -5 -30
-8 -3 -3 -34 -14 -70 -25 -131 -38 -362 -143 -490 -223 -19 -12 -43 -25 -52
-28 -10 -4 -18 -10 -18 -14 0 -4 -10 -11 -22 -17 -47 -21 -231 -167 -329 -261
-201 -191 -354 -396 -482 -643 -67 -131 -137 -299 -162 -389 -22 -79 -66 -262
-69 -290 -6 -45 -14 -107 -26 -195 -9 -70 -6 -418 4 -485 3 -19 8 -55 11 -80
16 -127 62 -308 113 -450 18 -52 36 -105 39 -117 3 -13 9 -23 14 -23 5 0 9 -5
9 -12 0 -12 117 -254 132 -273 19 -23 57 -85 53 -85 -5 0 18 -30 43 -55 6 -8
12 -17 12 -20 0 -4 10 -20 23 -35 12 -15 33 -43 47 -61 85 -112 238 -270 360
-370 36 -30 68 -57 71 -62 4 -5 15 -14 26 -20 11 -7 55 -36 97 -64 43 -29 79
-53 81 -53 1 0 32 -18 68 -40 55 -33 250 -130 262 -130 2 0 16 -5 32 -12 15
-6 30 -12 33 -13 3 -1 18 -7 33 -13 16 -7 34 -12 41 -12 7 0 16 -3 20 -8 4 -4
11 -7 14 -8 4 0 27 -6 52 -13 25 -7 50 -14 55 -16 6 -1 17 -5 25 -8 28 -11
191 -44 255 -53 17 -2 46 -6 65 -9 136 -22 415 -22 590 0 14 2 48 6 76 10 44
5 219 43 277 60 9 3 25 7 36 9 24 6 83 26 191 66 159 59 395 187 538 293 59
44 67 50 186 153 91 78 276 275 276 293 0 4 9 13 20 21 11 8 20 20 20 26 0 7
3 14 8 16 13 6 78 101 141 208 34 58 66 112 71 120 6 8 13 22 16 30 4 8 20 43
35 78 16 35 29 66 29 70 0 4 6 19 14 33 13 25 71 194 81 235 3 10 15 62 29
114 13 52 27 120 31 150 4 30 8 66 10 80 19 135 25 428 11 540 -3 25 -8 65
-11 90 -5 43 -18 122 -30 185 -8 40 -43 173 -54 205 -5 14 -15 45 -22 70 -7
25 -16 50 -19 55 -7 11 -44 107 -45 116 0 8 -108 223 -115 229 -3 3 -14 21
-24 40 -33 59 -129 204 -146 220 -9 8 -19 20 -21 26 -13 34 -336 374 -356 374
-4 0 -22 14 -40 30 -18 17 -37 30 -42 30 -6 0 -11 4 -11 9 0 5 -20 22 -45 38
-25 15 -45 31 -45 36 0 4 -6 7 -13 7 -7 0 -22 8 -33 18 -24 20 -39 30 -122 77
-34 19 -67 35 -72 35 -6 0 -10 5 -10 10 0 6 -5 10 -11 10 -6 0 -50 19 -97 42
-48 24 -92 43 -98 44 -6 1 -27 9 -45 17 -19 8 -52 21 -74 27 -22 7 -49 17 -60
23 -11 6 -29 11 -40 13 -11 1 -47 9 -80 19 -33 9 -69 18 -80 21 -57 11 -73 14
-105 20 -19 3 -51 8 -70 10 -19 3 -48 8 -65 11 -32 6 -511 14 -517 8z m462
-108 c30 -3 82 -10 115 -16 33 -6 76 -13 95 -16 42 -7 149 -33 170 -42 8 -3
25 -8 38 -10 73 -12 344 -124 457 -189 80 -46 190 -115 213 -134 10 -8 34 -26
53 -40 117 -83 270 -228 376 -355 41 -49 84 -100 94 -113 10 -12 19 -27 19
-32 0 -6 5 -10 10 -10 6 0 10 -5 10 -10 0 -6 8 -20 18 -31 11 -10 25 -32 33
-47 8 -15 17 -29 20 -32 14 -10 150 -280 142 -280 -4 0 -2 -4 4 -8 11 -7 85
-202 98 -257 2 -11 13 -51 24 -90 59 -212 85 -497 67 -735 -14 -169 -53 -385
-93 -500 -8 -25 -16 -52 -18 -60 -6 -28 -48 -135 -58 -147 -5 -7 -7 -13 -3
-13 23 0 -245 -467 -275 -478 -5 -2 -9 -10 -9 -17 0 -7 -3 -15 -8 -17 -4 -1
-23 -23 -42 -48 -19 -24 -48 -59 -65 -76 -16 -17 -39 -42 -51 -55 -94 -108
-306 -280 -471 -381 -100 -62 -312 -168 -336 -168 -8 0 -17 -5 -19 -10 -2 -6
-13 -12 -26 -13 -12 0 -22 -4 -22 -7 0 -4 -6 -7 -12 -8 -18 -1 -34 -6 -113
-31 -38 -12 -78 -24 -88 -26 -10 -2 -27 -7 -37 -10 -10 -3 -31 -8 -46 -10 -16
-2 -47 -9 -69 -14 -22 -5 -65 -13 -95 -16 -30 -4 -68 -9 -85 -11 -67 -9 -375
-11 -450 -3 -128 13 -215 26 -247 35 -10 3 -30 7 -45 10 -55 10 -219 57 -283
81 -8 3 -22 7 -30 9 -8 2 -16 8 -18 14 -2 5 -8 8 -13 5 -20 -13 -449 213 -449
237 0 4 -5 8 -10 8 -6 0 -16 5 -23 10 -7 6 -30 24 -52 41 -123 93 -327 279
-308 279 5 0 0 5 -9 10 -30 18 -251 306 -249 325 1 3 -14 26 -32 53 -28 40
-110 200 -137 267 -4 11 -15 36 -23 55 -19 44 -50 137 -72 215 -9 33 -20 74
-25 90 -8 28 -31 151 -45 240 -15 98 -23 335 -11 335 5 0 3 6 -3 13 -6 8 -9
16 -7 18 2 2 7 49 10 104 3 55 8 111 10 125 6 33 19 121 22 140 2 14 41 175
48 195 2 6 4 13 5 17 1 4 8 26 16 48 8 22 15 42 15 45 3 23 90 236 104 254 5
7 11 20 12 29 2 8 9 19 16 23 7 5 9 9 4 9 -4 0 -1 11 8 24 8 14 24 40 34 58
25 44 84 141 94 153 5 6 31 42 60 80 90 123 215 258 322 349 27 22 54 46 60
51 30 28 188 145 197 145 5 0 18 8 29 18 24 20 128 81 153 89 9 3 17 9 17 14
0 5 3 8 8 7 4 -1 41 15 82 34 94 45 245 101 330 123 36 9 72 19 80 23 8 3 19
4 24 3 4 -1 14 3 20 9 7 5 15 8 18 5 2 -3 20 0 39 5 19 6 54 13 79 16 25 3 54
8 65 10 11 3 49 7 85 10 36 3 66 6 67 8 4 3 339 -3 393 -7z"/>
<path d="M4845 7273 c-33 -20 -116 -71 -185 -113 -69 -42 -132 -79 -140 -83
-8 -4 -27 -15 -42 -25 -15 -9 -141 -86 -280 -171 -139 -85 -270 -165 -290
-179 l-38 -25 0 -157 0 -157 236 -144 c130 -79 248 -151 263 -159 14 -9 70
-42 124 -75 54 -33 110 -67 125 -76 32 -19 228 -140 259 -159 26 -17 41 -7 69
47 10 21 38 67 60 103 23 37 45 76 48 88 4 12 11 22 16 22 4 0 10 9 13 20 3
11 1 20 -4 20 -7 0 -116 66 -144 87 -5 5 -23 15 -40 23 -16 8 -32 18 -35 21
-3 3 -32 21 -65 39 -33 19 -61 37 -63 42 -2 4 -8 8 -13 8 -7 0 -298 173 -397
236 -22 15 -18 18 130 108 84 51 172 105 195 119 24 15 47 27 52 27 5 0 11 3
13 8 4 9 107 72 119 72 5 0 9 4 9 9 0 5 8 11 18 15 9 3 26 11 37 18 31 20 116
73 157 97 l37 22 -44 75 c-25 42 -45 80 -45 85 0 5 -5 9 -11 9 -5 0 -8 4 -5 9
4 5 2 11 -2 13 -5 1 -23 29 -41 61 -18 31 -33 57 -34 57 -1 0 -29 -17 -62 -37z"/>
<path d="M5856 7291 c-9 -10 -16 -23 -16 -29 0 -7 -4 -12 -10 -12 -5 0 -10 -4
-10 -10 0 -5 -29 -62 -65 -126 -36 -64 -65 -119 -65 -123 0 -4 37 -29 83 -56
45 -28 84 -52 87 -55 3 -3 16 -11 30 -18 28 -15 40 -21 131 -77 87 -53 80 -49
277 -168 l173 -105 -28 -18 c-15 -11 -37 -24 -48 -31 -30 -18 -242 -147 -405
-247 -80 -48 -161 -97 -180 -108 -19 -11 -56 -34 -81 -51 -47 -30 -47 -31 -31
-56 9 -14 19 -28 23 -31 3 -3 12 -18 21 -35 33 -66 53 -100 61 -103 4 -2 5 -8
1 -13 -3 -5 -1 -9 3 -9 5 0 17 -17 28 -37 25 -48 36 -55 55 -39 8 7 53 35 100
63 47 27 146 87 220 133 74 46 149 91 165 100 17 10 107 64 200 121 94 57 206
126 250 153 l80 48 0 155 0 156 -58 38 c-32 22 -63 39 -68 39 -5 0 -9 5 -9 10
0 6 -4 10 -9 10 -5 0 -154 91 -332 201 -178 111 -351 218 -384 238 -33 20 -61
39 -63 43 -2 5 -8 8 -14 8 -5 0 -29 13 -52 30 -42 28 -44 28 -60 11z"/>
<path d="M4198 3652 c-1 -4 -2 -193 -3 -420 l-2 -413 56 3 c53 3 56 4 65 36
l9 33 39 -38 c36 -35 43 -38 98 -38 66 0 100 19 128 70 9 17 22 33 27 37 6 4
7 8 3 8 -3 0 0 19 7 43 6 23 11 54 11 70 -1 15 1 27 4 27 5 0 4 63 -4 137 -10
98 -58 185 -117 210 -14 6 -45 9 -70 8 -37 -3 -50 -10 -80 -44 l-35 -39 0 156
1 157 -67 2 c-38 2 -69 -1 -70 -5z m250 -356 c28 -17 44 -81 44 -176 0 -103
-17 -161 -51 -180 -24 -12 -66 2 -79 27 -25 49 -32 217 -11 280 16 50 59 72
97 49z"/>
<path d="M5730 3640 c-31 -23 -36 -79 -10 -112 16 -21 27 -25 62 -23 54 3 78
30 72 83 -8 63 -72 91 -124 52z"/>
<path d="M6390 3604 c-1 -30 -1 -191 -1 -359 0 -168 0 -332 1 -365 l0 -60 70
0 c39 0 70 3 70 8 1 4 2 93 4 197 2 117 8 202 15 222 13 32 46 60 69 57 6 -1
18 -2 26 -3 12 -1 22 -18 31 -51 1 -3 4 -12 8 -20 3 -8 5 -103 4 -210 l-1
-195 74 0 74 0 0 218 c1 119 -3 217 -7 217 -5 0 -5 5 -2 10 9 14 -16 80 -40
108 -29 34 -68 50 -122 48 -51 -1 -96 -27 -120 -69 -11 -18 -12 6 -11 138 l2
160 -72 1 -72 1 0 -53z"/>
<path d="M7367 3645 c3 -8 0 -15 -6 -15 -8 0 -9 -5 -1 -19 7 -14 7 -22 -1 -27
-8 -4 -8 -9 0 -17 7 -7 7 -14 0 -23 -7 -8 -7 -14 1 -19 7 -4 7 -12 0 -26 -8
-13 -7 -19 0 -19 6 0 8 -5 5 -11 -11 -16 -12 -70 -3 -75 5 -3 4 -12 -2 -19 -8
-10 -8 -19 0 -34 7 -14 7 -21 1 -21 -7 0 -7 -9 -1 -26 6 -14 7 -23 2 -21 -9 6
-8 -45 2 -61 3 -6 2 -13 -4 -17 -7 -4 -7 -12 0 -26 6 -10 7 -19 2 -19 -10 0
-8 -42 3 -59 3 -6 2 -11 -4 -11 -7 0 -7 -8 -2 -22 5 -13 5 -32 1 -43 -4 -11
-3 -28 2 -37 5 -12 5 -18 -1 -18 -7 0 -7 -9 -1 -26 6 -14 7 -23 2 -21 -4 3 -7
-10 -7 -29 0 -19 3 -34 7 -34 4 0 5 -7 2 -15 -5 -12 6 -15 65 -15 39 0 71 3
72 8 0 4 2 90 4 192 2 102 6 192 8 200 3 8 8 25 12 38 9 27 51 50 83 44 35 -6
49 -53 48 -159 0 -51 2 -93 6 -93 4 0 4 -10 -1 -23 -5 -14 -5 -30 0 -40 6 -10
6 -17 1 -17 -5 0 -8 -17 -6 -37 2 -21 3 -55 3 -75 l1 -38 73 0 72 0 -1 213
c-1 213 -9 307 -25 307 -5 0 -9 9 -9 19 0 11 -9 23 -21 26 -11 4 -18 10 -14
13 7 7 -71 32 -103 32 -41 0 -131 -58 -115 -74 4 -3 1 -6 -5 -6 -7 0 -10 48
-8 150 2 170 8 159 -86 159 -46 0 -56 -3 -51 -14z"/>
<path d="M8439 3656 c-1 -1 -2 -189 -3 -418 l-1 -418 72 0 73 0 0 418 0 419
-70 0 c-38 0 -71 -1 -71 -1z"/>
<path d="M2332 3600 c-7 -5 -10 -13 -19 -60 -8 -41 -11 -55 -13 -55 -3 0 -22
-85 -23 -102 0 -7 -5 -13 -10 -13 -5 0 -6 -7 -3 -16 4 -9 1 -23 -5 -30 -6 -8
-9 -14 -6 -14 3 0 1 -15 -4 -32 -6 -18 -12 -42 -14 -53 -9 -38 -15 -65 -21
-87 -3 -13 -6 -29 -6 -35 -1 -7 -4 -13 -8 -13 -3 0 -6 -8 -6 -17 -1 -17 -4
-32 -19 -93 -3 -14 -8 -32 -10 -40 -2 -8 -4 -15 -5 -15 -2 0 -11 -38 -13 -60
-2 -11 -6 -26 -10 -32 -6 -10 10 -13 72 -13 45 0 80 3 79 8 -1 4 4 34 11 67 8
33 15 67 16 75 2 8 4 16 5 18 2 1 3 8 4 15 1 9 29 12 106 12 77 0 105 -3 106
-12 1 -7 2 -14 4 -15 2 -4 6 -22 14 -68 16 -97 14 -95 100 -98 53 -2 76 1 71
8 -3 6 -8 20 -11 33 -7 37 -12 59 -29 122 -9 33 -18 69 -21 80 -10 50 -22 99
-24 103 -3 3 -5 11 -14 59 -4 24 -11 45 -16 48 -4 2 -6 16 -5 30 2 14 -1 25
-5 25 -5 0 -7 9 -5 20 2 11 -1 20 -7 20 -5 0 -8 6 -5 14 3 8 3 17 -1 20 -3 4
-8 17 -10 29 -5 30 -10 52 -12 52 -1 0 -4 11 -7 25 -5 27 -6 31 -17 71 -8 27
-8 27 -102 26 -52 -1 -98 -4 -102 -7z m105 -150 c-3 -11 -2 -20 3 -20 4 0 8
-10 8 -22 1 -22 9 -63 12 -63 1 0 3 -11 5 -25 6 -33 13 -65 15 -65 1 0 4 -16
7 -35 2 -19 9 -40 14 -46 15 -18 -2 -24 -73 -24 l-68 0 6 37 c3 20 10 47 15
60 5 13 7 23 4 23 -2 0 1 15 6 33 5 17 12 46 14 62 3 17 8 44 12 60 4 17 6 33
5 38 -1 4 3 7 9 7 6 0 9 -9 6 -20z"/>
<path d="M5020 3595 c-6 -7 -7 -15 -3 -18 5 -6 8 -452 2 -467 -1 -3 0 -9 1
-15 1 -5 3 -70 3 -142 l0 -133 67 0 c59 0 68 2 73 20 3 11 2 20 -2 20 -4 0 -6
14 -4 30 2 17 4 44 6 60 2 17 1 30 -2 30 -8 0 -6 78 1 86 4 3 3 16 -1 28 -4
11 -6 32 -4 46 7 58 8 90 3 90 -3 0 -5 34 -6 75 -1 73 11 90 22 30 3 -15 11
-37 19 -49 8 -11 15 -28 15 -38 0 -10 5 -18 10 -18 6 0 10 -6 10 -14 0 -11 70
-181 122 -296 6 -14 12 -27 13 -30 1 -3 8 -20 15 -38 l12 -33 92 3 91 3 0 392
0 391 -68 -1 c-55 -1 -67 -4 -66 -16 1 -9 0 -20 -1 -26 -1 -5 -1 -48 0 -95 1
-110 1 -103 0 -155 -1 -24 1 -48 4 -53 2 -4 1 -14 -4 -22 -5 -8 -5 -21 1 -31
6 -12 5 -20 -1 -24 -6 -4 -8 -11 -4 -16 8 -14 12 -121 3 -112 -4 4 -9 17 -11
28 -1 11 -5 22 -8 25 -8 7 -85 182 -84 190 0 3 -10 27 -24 54 -13 26 -25 53
-26 60 -1 6 -14 38 -30 70 -16 33 -29 66 -30 73 -1 8 -10 22 -18 33 -14 16
-30 18 -98 17 -47 0 -85 -5 -90 -12z"/>
<path d="M2915 3422 c-35 -7 -115 -44 -115 -54 0 -10 28 -67 42 -85 7 -9 17
-7 42 8 48 28 114 28 137 0 11 -13 17 -27 14 -31 -3 -5 -1 -11 3 -14 5 -3 7
-17 4 -31 -4 -21 -10 -25 -43 -26 -61 -2 -71 -4 -120 -18 -50 -14 -114 -64
-104 -81 3 -5 2 -10 -3 -10 -10 0 -12 -7 -16 -83 -8 -142 89 -221 211 -172 21
8 47 28 58 44 10 16 23 27 27 25 5 -3 6 -10 3 -15 -4 -5 -2 -9 4 -9 5 0 11
-10 13 -22 3 -20 10 -23 58 -26 l56 -3 -1 223 c-1 247 -9 292 -56 338 -44 41
-130 58 -214 42z m127 -336 c4 -5 3 -17 0 -25 -4 -9 -7 -31 -7 -48 0 -18 -3
-33 -8 -33 -4 0 -6 -4 -3 -9 17 -27 -82 -62 -104 -36 -16 20 -20 88 -5 114 20
38 109 64 127 37z"/>
<path d="M3503 3408 c-18 -13 -38 -35 -44 -50 -19 -45 -25 -39 -32 37 -2 17
-10 20 -63 23 l-60 3 0 -300 -1 -301 72 0 72 0 -1 156 c-1 182 10 255 44 284
24 21 28 22 74 24 31 1 33 5 41 85 3 29 0 48 -8 53 -22 14 -62 8 -94 -14z"/>
<path d="M3775 3412 c-27 -9 -59 -22 -70 -29 -19 -11 -19 -12 4 -62 l24 -50
29 15 c98 51 168 26 168 -57 0 -37 -1 -39 -32 -40 -185 -2 -261 -68 -252 -218
7 -131 107 -195 218 -141 23 11 49 32 58 47 l17 28 11 -30 c6 -17 13 -36 15
-42 3 -8 24 -13 58 -13 l53 0 -1 233 c-2 245 -6 272 -52 324 -43 49 -160 65
-248 35z m155 -366 c0 -61 -27 -110 -64 -120 -29 -7 -65 7 -68 27 -5 44 -4 75
5 94 12 27 61 52 99 51 27 -1 28 -3 28 -52z"/>
<path d="M6053 3413 c-70 -28 -103 -75 -104 -151 -2 -76 28 -122 117 -182 75
-51 95 -78 86 -113 -13 -49 -80 -57 -166 -18 l-41 18 1 -57 c1 -32 4 -62 7
-67 4 -6 27 -16 51 -22 112 -28 221 -1 266 67 19 30 24 50 24 103 1 82 -22
119 -104 172 -84 54 -106 81 -94 114 13 37 42 44 101 24 l51 -17 22 47 c13 26
19 52 16 58 -11 17 -110 42 -158 40 -24 -1 -58 -8 -75 -16z"/>
<path d="M7067 3416 c-21 -8 -48 -22 -59 -33 -23 -21 -60 -88 -64 -118 -2 -11
-6 -31 -9 -45 -11 -42 -8 -178 6 -233 33 -142 132 -202 275 -166 50 13 60 27
58 84 -3 70 -1 67 -32 51 -15 -8 -44 -17 -65 -20 -33 -5 -42 -2 -67 24 -16 17
-27 36 -24 44 3 8 1 16 -3 19 -8 5 -8 166 0 197 7 27 21 55 33 67 16 16 62 19
95 5 23 -9 28 -8 37 11 12 25 26 67 27 82 2 32 -146 54 -208 31z"/>
<path d="M8016 3411 c-32 -11 -63 -24 -69 -30 -13 -13 -18 -41 -8 -41 4 0 15
-15 24 -34 l16 -35 38 19 c90 43 144 27 157 -47 8 -42 -3 -50 -78 -57 -131
-12 -192 -60 -205 -159 -16 -117 47 -217 135 -217 59 0 94 15 130 57 l30 35
14 -41 13 -41 52 0 c48 0 53 2 57 25 3 14 1 28 -3 31 -5 3 -5 12 0 21 5 9 5
28 1 42 -4 14 -4 35 0 46 4 11 4 30 -1 43 -5 12 -5 22 -1 22 8 0 8 52 0 66 -3
5 -2 18 2 29 4 11 4 30 -1 43 -5 13 -5 22 1 22 5 0 7 6 5 13 -2 6 -6 26 -8 42
-7 42 -11 59 -17 65 -3 3 -13 17 -22 31 -38 60 -159 83 -262 50z m158 -348
c-1 -21 -2 -48 -3 -61 -1 -26 -52 -82 -74 -82 -37 0 -83 79 -57 95 5 3 7 12 3
20 -3 8 0 15 6 15 6 0 11 7 11 15 0 14 40 29 90 33 24 2 26 -1 24 -35z"/>
<path d="M5709 3416 c-1 -1 -2 -135 -3 -299 l-1 -297 73 0 72 0 0 299 0 299
-70 -1 c-38 0 -71 -1 -71 -1z"/>
</g>
</svg>
