<?xml version="1.0" standalone="yes"?>
<svg xmlns="http://www.w3.org/2000/svg" width="200" height="200">
<path style="fill:#ffffff; stroke:none;" d="M0 0L0 200L200 200L200 0L0 0z"/>
<path style="fill:#686c72; stroke:none;" d="M81 73L81 74C88.5465 72.2033 111.05 69.6023 117.682 74.0278C121.587 76.6337 121.603 94.1902 118.397 97.3966C115.517 100.276 108.721 99 105 99C120.242 105.396 127.416 85.473 119.972 74.3179C117.934 71.263 113.15 72.0014 110 72C100.807 71.9959 89.8398 70.3871 81 73z"/>
<path style="fill:#999b9f; stroke:none;" d="M119 72L120 73L119 72M82 73L83 74L82 73z"/>
<path style="fill:#ffffff; stroke:none;" d="M119 99L119 73L93 73L83.0278 74.6034L82 86L83.6034 97.9722L94 99L119 99z"/>
<path style="fill:#999b9f; stroke:none;" d="M120 73L121 74L120 73z"/>
<path style="fill:#363c45; stroke:none;" d="M81 74L81 98L82 98L81 74z"/>
<path style="fill:#c7c9cb; stroke:none;" d="M119 74L119 98L120 98L119 74M103 78L104 79L103 78z"/>
<path style="fill:#363c45; stroke:none;" d="M103 79L104 80L103 79z"/>
<path style="fill:#999b9f; stroke:none;" d="M102 80L103 81L102 80z"/>
<path style="fill:#686c72; stroke:none;" d="M103 80L101 84L102 84L103 80M93.6667 81.3333L94.3333 81.6667L93.6667 81.3333z"/>
<path style="fill:#c7c9cb; stroke:none;" d="M103 81L104 82L103 81z"/>
<path style="fill:#363c45; stroke:none;" d="M107 81L108 82L107 81z"/>
<path style="fill:#999b9f; stroke:none;" d="M108.333 81.6667L108.667 82.3333L108.333 81.6667M91.3333 82.6667L91.6667 83.3333L91.3333 82.6667z"/>
<path style="fill:#363c45; stroke:none;" d="M92 82L93 83L92 82z"/>
<path style="fill:#999b9f; stroke:none;" d="M93 82L94 83L93 82z"/>
<path style="fill:#c7c9cb; stroke:none;" d="M101 82L102 83L101 82z"/>
<path style="fill:#363c45; stroke:none;" d="M109 82L110 83L109 82z"/>
<path style="fill:#999b9f; stroke:none;" d="M110 82L111 83L110 82M89 83L90 84L89 83z"/>
<path style="fill:#363c45; stroke:none;" d="M90 83L91 84L90 83z"/>
<path style="fill:#999b9f; stroke:none;" d="M102 83L103 84L102 83z"/>
<path style="fill:#686c72; stroke:none;" d="M110 83L111 84L110 83z"/>
<path style="fill:#363c45; stroke:none;" d="M111 83L112 84L111 83z"/>
<path style="fill:#c7c9cb; stroke:none;" d="M112 83L111 85L112 83M87 84L87 88L88 88L87 84z"/>
<path style="fill:#363c45; stroke:none;" d="M88 84L89 85L88 84z"/>
<path style="fill:#686c72; stroke:none;" d="M89 84L90 85L89 84z"/>
<path style="fill:#363c45; stroke:none;" d="M101 84L102 85L101 84z"/>
<path style="fill:#686c72; stroke:none;" d="M112.667 84.3333L113.333 84.6667L112.667 84.3333z"/>
<path style="fill:#c7c9cb; stroke:none;" d="M114 84L114 88L115 88L114 84z"/>
<path style="fill:#686c72; stroke:none;" d="M86 85L86 87L88 87L88 85L86 85z"/>
<path style="fill:#999b9f; stroke:none;" d="M100 85L101 86L100 85z"/>
<path style="fill:#686c72; stroke:none;" d="M101 85L99 89L100 89L101 85z"/>
<path style="fill:#363c45; stroke:none;" d="M114.333 85.6667L114.667 86.3333L114.333 85.6667z"/>
<path style="fill:#686c72; stroke:none;" d="M115.333 85.6667L115.667 86.3333L115.333 85.6667z"/>
<path style="fill:#c7c9cb; stroke:none;" d="M101 86L102 87L101 86z"/>
<path style="fill:#686c72; stroke:none;" d="M88.6667 87.3333L89.3333 87.6667L88.6667 87.3333z"/>
<path style="fill:#c7c9cb; stroke:none;" d="M99 87L100 88L99 87M111 87L113 89L111 87z"/>
<path style="fill:#686c72; stroke:none;" d="M112.667 87.3333L113.333 87.6667L112.667 87.3333z"/>
<path style="fill:#999b9f; stroke:none;" d="M89 88L90 89L89 88z"/>
<path style="fill:#363c45; stroke:none;" d="M90 88L91 89L90 88z"/>
<path style="fill:#999b9f; stroke:none;" d="M91.3333 88.6667L91.6667 89.3333L91.3333 88.6667M100 88L101 89L100 88z"/>
<path style="fill:#686c72; stroke:none;" d="M110 88L111 89L110 88z"/>
<path style="fill:#363c45; stroke:none;" d="M111 88L112 89L111 88M92 89L93 90L92 89z"/>
<path style="fill:#999b9f; stroke:none;" d="M93 89L94 90L93 89z"/>
<path style="fill:#363c45; stroke:none;" d="M99 89L100 90L99 89z"/>
<path style="fill:#999b9f; stroke:none;" d="M108.333 89.6667L108.667 90.3333L108.333 89.6667z"/>
<path style="fill:#363c45; stroke:none;" d="M109 89L110 90L109 89z"/>
<path style="fill:#999b9f; stroke:none;" d="M110 89L111 90L110 89z"/>
<path style="fill:#686c72; stroke:none;" d="M93.6667 90.3333L94.3333 90.6667L93.6667 90.3333z"/>
<path style="fill:#999b9f; stroke:none;" d="M98 90L99 91L98 90z"/>
<path style="fill:#686c72; stroke:none;" d="M99 90L98 93L99 93L99 90z"/>
<path style="fill:#363c45; stroke:none;" d="M107 90L108 91L107 90z"/>
<path style="fill:#c7c9cb; stroke:none;" d="M99 91L100 92L99 91M97 92L98 93L97 92z"/>
<path style="fill:#686c72; stroke:none;" d="M81 98L81 99L97 100L98 106L99 106L98 100L104 100L104 99L81 98z"/>
<path style="fill:#999b9f; stroke:none;" d="M82 98L83 99L82 98M120 98L121 99L120 98z"/>
<path style="fill:#363c45; stroke:none;" d="M97 99L98 100L97 99M104 99L105 100L104 99z"/>
<path style="fill:#999b9f; stroke:none;" d="M119 99L120 100L119 99z"/>
<path style="fill:#c7c9cb; stroke:none;" d="M98 100L98 105L99 105L98 100z"/>
<path style="fill:#ffffff; stroke:none;" d="M99 100L99 105L103 105L103 100L99 100z"/>
<path style="fill:#c7c9cb; stroke:none;" d="M103 100L103 105L104 105L103 100z"/>
<path style="fill:#999b9f; stroke:none;" d="M104 100L107 106L107 105L104 100z"/>
<path style="fill:#c7c9cb; stroke:none;" d="M94 105L94 106L107 107L107 106L94 105z"/>
<path style="fill:#999b9f; stroke:none;" d="M95.6667 105.333L96.3333 105.667L95.6667 105.333z"/>
<path style="fill:#363c45; stroke:none;" d="M97 105L98 106L97 105z"/>
<path style="fill:#999b9f; stroke:none;" d="M99 105L99 106L103 106L99 105z"/>
<path style="fill:#686c72; stroke:none;" d="M103.667 105.333L104.333 105.667L103.667 105.333z"/>
<path style="fill:#c7c9cb; stroke:none;" d="M75.3333 111.667L75.6667 112.333L75.3333 111.667z"/>
<path style="fill:#999b9f; stroke:none;" d="M76 111C76.855 115.522 75.0874 126.947 80 128L78 121L80 122L76 111z"/>
<path style="fill:#c7c9cb; stroke:none;" d="M78 111L79 112L78 111z"/>
<path style="fill:#999b9f; stroke:none;" d="M120 113L123 112L120 113M140 113L143 112L140 113M160 111L160 112L163 112L163 126C164.937 121.384 165.49 112.822 160 111z"/>
<path style="fill:#686c72; stroke:none;" d="M77 112L78 113L77 112M121 112L122 113L121 112z"/>
<path style="fill:#363c45; stroke:none;" d="M122 112L122 128L123 128L122 112z"/>
<path style="fill:#686c72; stroke:none;" d="M141 112L143 122L144 122L141 112z"/>
<path style="fill:#c7c9cb; stroke:none;" d="M160 112L161 113L160 112z"/>
<path style="fill:#363c45; stroke:none;" d="M162 112L163 113L162 112z"/>
<path style="fill:#c7c9cb; stroke:none;" d="M121 113L121 128L122 128L121 113M141 113L141 128L142 128L141 113z"/>
<path style="fill:#686c72; stroke:none;" d="M162 113C162 117.913 160.436 125.041 165 128L162 113z"/>
<path style="fill:#999b9f; stroke:none;" d="M39 116L42 115L39 116M92 114L93 128L95 128L94 114L92 114z"/>
<path style="fill:#c7c9cb; stroke:none;" d="M94 114L95 115L94 114M101 114L102 115L101 114z"/>
<path style="fill:#999b9f; stroke:none;" d="M101 115L101 116L106 116L101 115z"/>
<path style="fill:#363c45; stroke:none;" d="M40 115L40 117L42 115L40 115z"/>
<path style="fill:#686c72; stroke:none;" d="M93 115L94 116L93 115z"/>
<path style="fill:#363c45; stroke:none;" d="M94.3333 115.667L94.6667 116.333L94.3333 115.667M103 115L103 128L104 128L103 115z"/>
<path style="fill:#686c72; stroke:none;" d="M104 115L105 116L104 115z"/>
<path style="fill:#999b9f; stroke:none;" d="M108 115L109 116L108 115z"/>
<path style="fill:#686c72; stroke:none;" d="M109 115L110 116L109 115M41.6667 116.333L42.3333 116.667L41.6667 116.333M95 116L95 118L97 118L95 116z"/>
<path style="fill:#c7c9cb; stroke:none;" d="M104 116L104 128L105 128L104 116M108.667 116.333L109.333 116.667L108.667 116.333z"/>
<path style="fill:#686c72; stroke:none;" d="M39 117L40 118L39 117z"/>
<path style="fill:#999b9f; stroke:none;" d="M40 117L41 118L40 117z"/>
<path style="fill:#ffffff; stroke:none;" d="M41 117L39 122L44 122L41 117z"/>
<path style="fill:#363c45; stroke:none;" d="M42 117L43 118L42 117M39 118L40 119L39 118z"/>
<path style="fill:#686c72; stroke:none;" d="M42.6667 118.333L43.3333 118.667L42.6667 118.333z"/>
<path style="fill:#363c45; stroke:none;" d="M96 118L99 121L96 118z"/>
<path style="fill:#999b9f; stroke:none;" d="M97 118L98 119L97 118z"/>
<path style="fill:#686c72; stroke:none;" d="M38.6667 119.333L39.3333 119.667L38.6667 119.333z"/>
<path style="fill:#363c45; stroke:none;" d="M43 119L44 120L43 119z"/>
<path style="fill:#c7c9cb; stroke:none;" d="M50 119L51 120L50 119z"/>
<path style="fill:#999b9f; stroke:none;" d="M51 119L49 123L54 119L51 119z"/>
<path style="fill:#c7c9cb; stroke:none;" d="M54 119L55 120L54 119M58.6667 119.333L59.3333 119.667L58.6667 119.333M62 119L63 120L62 119z"/>
<path style="fill:#999b9f; stroke:none;" d="M63 119L64 122L65 122L65 119L63 119z"/>
<path style="fill:#c7c9cb; stroke:none;" d="M68 119L69 120L68 119z"/>
<path style="fill:#999b9f; stroke:none;" d="M67 120L67 121L67 122L72 119L67 120z"/>
<path style="fill:#c7c9cb; stroke:none;" d="M72 119L73 120L72 119z"/>
<path style="fill:#999b9f; stroke:none;" d="M80 119L81 121L82 121L83 119L80 119z"/>
<path style="fill:#c7c9cb; stroke:none;" d="M96 119L97 120L96 119M98 119L99 120L98 119M106 120L106 121L110 120L106 120z"/>
<path style="fill:#999b9f; stroke:none;" d="M114 119L117 121L114 119z"/>
<path style="fill:#c7c9cb; stroke:none;" d="M117 119L118 120L117 119M124 119L125 120L124 119z"/>
<path style="fill:#999b9f; stroke:none;" d="M125 119L129 121L129 120L125 119z"/>
<path style="fill:#c7c9cb; stroke:none;" d="M127 119L128 120L127 119M134 119L135 120L134 119z"/>
<path style="fill:#999b9f; stroke:none;" d="M135 119L135 121L137 121L137 119L135 119z"/>
<path style="fill:#c7c9cb; stroke:none;" d="M137 119L138 120L137 119M144 119L145 120L144 119z"/>
<path style="fill:#999b9f; stroke:none;" d="M145 119L147 127L148 127L145 119z"/>
<path style="fill:#c7c9cb; stroke:none;" d="M147 119L149 121L147 119z"/>
<path style="fill:#999b9f; stroke:none;" d="M153 119L153 120L158 122L153 119z"/>
<path style="fill:#363c45; stroke:none;" d="M38 120L39 121L38 120z"/>
<path style="fill:#686c72; stroke:none;" d="M43.6667 120.333L44.3333 120.667L43.6667 120.333M49.3333 120.667L49.6667 121.333L49.3333 120.667z"/>
<path style="fill:#363c45; stroke:none;" d="M50 120L51 121L50 120M54 120L55 127L56 127L54 120z"/>
<path style="fill:#999b9f; stroke:none;" d="M55 120L56 121L55 120z"/>
<path style="fill:#686c72; stroke:none;" d="M58.6667 120.333L59.3333 120.667L58.6667 120.333z"/>
<path style="fill:#363c45; stroke:none;" d="M60 120L60 128L61 128L60 120z"/>
<path style="fill:#999b9f; stroke:none;" d="M61 120L62 121L61 120z"/>
<path style="fill:#363c45; stroke:none;" d="M62 120L63 121L62 120z"/>
<path style="fill:#686c72; stroke:none;" d="M64 120L66 122L66 120L64 120z"/>
<path style="fill:#363c45; stroke:none;" d="M68 120L69 121L68 120M72 120L73 127L74 127L72 120z"/>
<path style="fill:#686c72; stroke:none;" d="M73 120L74 121L73 120M79.6667 120.333L80.3333 120.667L79.6667 120.333M82 120L83 121L82 120z"/>
<path style="fill:#363c45; stroke:none;" d="M83 120L84 123L85 123L83 120z"/>
<path style="fill:#c7c9cb; stroke:none;" d="M84 120L85 121L84 120z"/>
<path style="fill:#999b9f; stroke:none;" d="M97 120L98 121L97 120z"/>
<path style="fill:#686c72; stroke:none;" d="M107 120L108 121L107 120z"/>
<path style="fill:#363c45; stroke:none;" d="M108 120L109 121L108 120z"/>
<path style="fill:#686c72; stroke:none;" d="M109 120L109 128L110 128L109 120z"/>
<path style="fill:#c7c9cb; stroke:none;" d="M112 120L113 121L112 120z"/>
<path style="fill:#363c45; stroke:none;" d="M113 120L114 121L113 120z"/>
<path style="fill:#686c72; stroke:none;" d="M114 120L113 122L114 120M117 120L118 121L117 120z"/>
<path style="fill:#363c45; stroke:none;" d="M118.333 120.667L118.667 121.333L118.333 120.667z"/>
<path style="fill:#999b9f; stroke:none;" d="M123 120L124 121L123 120z"/>
<path style="fill:#363c45; stroke:none;" d="M124 120L125 121L124 120M127 120L128 121L127 120z"/>
<path style="fill:#686c72; stroke:none;" d="M133 120L132 122L134 122L133 120z"/>
<path style="fill:#363c45; stroke:none;" d="M134 120L135 121L134 120z"/>
<path style="fill:#686c72; stroke:none;" d="M137 120L138 121L137 120z"/>
<path style="fill:#363c45; stroke:none;" d="M138 120L138 123L139 123L138 120z"/>
<path style="fill:#999b9f; stroke:none;" d="M143 120L144 121L143 120z"/>
<path style="fill:#363c45; stroke:none;" d="M144 120L145 121L144 120M147 120L148 121L147 120z"/>
<path style="fill:#686c72; stroke:none;" d="M152 120L152 122L154 120L152 120z"/>
<path style="fill:#363c45; stroke:none;" d="M157 120L158 121L157 120z"/>
<path style="fill:#c7c9cb; stroke:none;" d="M158 120L159 121L158 120z"/>
<path style="fill:#686c72; stroke:none;" d="M37.6667 121.333L38.3333 121.667L37.6667 121.333z"/>
<path style="fill:#363c45; stroke:none;" d="M44 121L45 122L44 121z"/>
<path style="fill:#ffffff; stroke:none;" d="M51 121L51 123L54 123L54 121L51 121z"/>
<path style="fill:#c7c9cb; stroke:none;" d="M54.3333 121.667L54.6667 122.333L54.3333 121.667z"/>
<path style="fill:#686c72; stroke:none;" d="M61 121L62 122L61 121z"/>
<path style="fill:#ffffff; stroke:none;" d="M69 121L73 123L69 121z"/>
<path style="fill:#c7c9cb; stroke:none;" d="M72 121L73 122L72 121z"/>
<path style="fill:#363c45; stroke:none;" d="M78 121L79 122L78 121z"/>
<path style="fill:#ffffff; stroke:none;" d="M80 127C87.4336 124.006 78.0983 118.655 80 127z"/>
<path style="fill:#999b9f; stroke:none;" d="M83 121L84 122L83 121z"/>
<path style="fill:#686c72; stroke:none;" d="M98.6667 121.333L99.3333 121.667L98.6667 121.333z"/>
<path style="fill:#999b9f; stroke:none;" d="M108 121L108 128L109 128L108 121M112 121L114 124L112 121z"/>
<path style="fill:#ffffff; stroke:none;" d="M114 121L114 122L118 123L114 121z"/>
<path style="fill:#c7c9cb; stroke:none;" d="M117 121L118 122L117 121z"/>
<path style="fill:#686c72; stroke:none;" d="M123 121L124 122L123 121M128 121L128 126L129 126L128 121z"/>
<path style="fill:#363c45; stroke:none;" d="M142.333 121.667L142.667 122.333L142.333 121.667z"/>
<path style="fill:#686c72; stroke:none;" d="M148 121L148 126L149 126L148 121z"/>
<path style="fill:#c7c9cb; stroke:none;" d="M153 121L154 122L153 121z"/>
<path style="fill:#ffffff; stroke:none;" d="M153 122L153 123L157 121L153 122z"/>
<path style="fill:#686c72; stroke:none;" d="M158 121L156 124L156 127L160 128L160 127L158 121z"/>
<path style="fill:#363c45; stroke:none;" d="M37 122L36 125L37 122z"/>
<path style="fill:#999b9f; stroke:none;" d="M38 122L39 123L38 122z"/>
<path style="fill:#c7c9cb; stroke:none;" d="M39 122L39 123L44 123L39 122z"/>
<path style="fill:#686c72; stroke:none;" d="M38 123L38 124L47 125L47 124L46 122L38 123z"/>
<path style="fill:#c7c9cb; stroke:none;" d="M50 122L51 123L50 122M64.6667 122.333L65.3333 122.667L64.6667 122.333M67.6667 122.333L68.3333 122.667L67.6667 122.333z"/>
<path style="fill:#686c72; stroke:none;" d="M78 122L79 123L78 122z"/>
<path style="fill:#c7c9cb; stroke:none;" d="M85 122L86 123L85 122z"/>
<path style="fill:#363c45; stroke:none;" d="M99 122L102 125L99 122z"/>
<path style="fill:#999b9f; stroke:none;" d="M100 122L101 123L100 122z"/>
<path style="fill:#363c45; stroke:none;" d="M113 122L114 123L113 122z"/>
<path style="fill:#c7c9cb; stroke:none;" d="M114 122L115 123L114 122z"/>
<path style="fill:#686c72; stroke:none;" d="M118 122L119 123L118 122z"/>
<path style="fill:#c7c9cb; stroke:none;" d="M127 122L127 127L128 127L127 122z"/>
<path style="fill:#363c45; stroke:none;" d="M132 122L133 127L134 127L132 122z"/>
<path style="fill:#999b9f; stroke:none;" d="M152 122L153 123L152 122z"/>
<path style="fill:#c7c9cb; stroke:none;" d="M157 122L158 123L157 122z"/>
<path style="fill:#686c72; stroke:none;" d="M36 123L37 124L36 123z"/>
<path style="fill:#363c45; stroke:none;" d="M45 123L46 124L45 123z"/>
<path style="fill:#686c72; stroke:none;" d="M49 125L52 123L49 125z"/>
<path style="fill:#363c45; stroke:none;" d="M52 123L53 124L52 123z"/>
<path style="fill:#686c72; stroke:none;" d="M53.6667 123.333L54.3333 123.667L53.6667 123.333z"/>
<path style="fill:#999b9f; stroke:none;" d="M68 123L69 124L68 123z"/>
<path style="fill:#686c72; stroke:none;" d="M69 123L67 124L67 125L69 123z"/>
<path style="fill:#363c45; stroke:none;" d="M70 123L71 124L70 123z"/>
<path style="fill:#686c72; stroke:none;" d="M71 123L72 124L71 123z"/>
<path style="fill:#999b9f; stroke:none;" d="M72 123L71 127L72 127L72 123z"/>
<path style="fill:#686c72; stroke:none;" d="M84 123L85 124L84 123z"/>
<path style="fill:#999b9f; stroke:none;" d="M85 123L86 124L85 123z"/>
<path style="fill:#c7c9cb; stroke:none;" d="M99 123L100 124L99 123M101 123L102 124L101 123z"/>
<path style="fill:#686c72; stroke:none;" d="M114 123L115 124L114 123z"/>
<path style="fill:#363c45; stroke:none;" d="M115 123L116 124L115 123z"/>
<path style="fill:#686c72; stroke:none;" d="M116 123L119 125L119 124L116 123z"/>
<path style="fill:#999b9f; stroke:none;" d="M117 123L118 124L117 123z"/>
<path style="fill:#c7c9cb; stroke:none;" d="M131.333 123.667L131.667 124.333L131.333 123.667z"/>
<path style="fill:#686c72; stroke:none;" d="M142 123L142 128L143 128L142 123z"/>
<path style="fill:#c7c9cb; stroke:none;" d="M152 123L153 124L152 123z"/>
<path style="fill:#686c72; stroke:none;" d="M153 123L154 124L153 123z"/>
<path style="fill:#363c45; stroke:none;" d="M154.667 123.333L155.333 123.667L154.667 123.333z"/>
<path style="fill:#c7c9cb; stroke:none;" d="M51 124L52 125L51 124z"/>
<path style="fill:#ffffff; stroke:none;" d="M50 126L54 125L50 126z"/>
<path style="fill:#c7c9cb; stroke:none;" d="M53 124L54 125L53 124z"/>
<path style="fill:#999b9f; stroke:none;" d="M54.3333 124.667L54.6667 125.333L54.3333 124.667z"/>
<path style="fill:#c7c9cb; stroke:none;" d="M69 124L68 126L69 124z"/>
<path style="fill:#ffffff; stroke:none;" d="M70 124L69 127L72 125L70 124z"/>
<path style="fill:#c7c9cb; stroke:none;" d="M71 124L72 125L71 124z"/>
<path style="fill:#363c45; stroke:none;" d="M84.3333 124.667L84.6667 125.333L84.3333 124.667z"/>
<path style="fill:#c7c9cb; stroke:none;" d="M85 124L86 125L85 124z"/>
<path style="fill:#999b9f; stroke:none;" d="M100 124L101 125L100 124z"/>
<path style="fill:#c7c9cb; stroke:none;" d="M116 124L117 125L116 124z"/>
<path style="fill:#363c45; stroke:none;" d="M152 124L156 128L156 127L152 124z"/>
<path style="fill:#999b9f; stroke:none;" d="M153 124L154 125L153 124z"/>
<path style="fill:#ffffff; stroke:none;" d="M153 125L153 126L157 126L153 125z"/>
<path style="fill:#c7c9cb; stroke:none;" d="M156 124L157 125L156 124z"/>
<path style="fill:#999b9f; stroke:none;" d="M157 124L158 125L157 124z"/>
<path style="fill:#686c72; stroke:none;" d="M35.6667 125.333L36.3333 125.667L35.6667 125.333z"/>
<path style="fill:#c7c9cb; stroke:none;" d="M45 125L46 126L45 125z"/>
<path style="fill:#363c45; stroke:none;" d="M46 125L47 126L46 125M49 125L53 128L53 127L49 125M67 125L71 128L71 127L67 125z"/>
<path style="fill:#686c72; stroke:none;" d="M101 125L103 127L103 125L101 125M112 125L114 128L112 125z"/>
<path style="fill:#999b9f; stroke:none;" d="M113 125L114 126L113 125z"/>
<path style="fill:#363c45; stroke:none;" d="M118.333 125.667L118.667 126.333L118.333 125.667z"/>
<path style="fill:#c7c9cb; stroke:none;" d="M119 125L120 126L119 125M133 125L134 126L133 125M138 125L138 128L139 128L140 125L138 125M151.333 125.667L151.667 126.333L151.333 125.667z"/>
<path style="fill:#363c45; stroke:none;" d="M35 126L36 127L35 126z"/>
<path style="fill:#686c72; stroke:none;" d="M46.6667 126.333L47.3333 126.667L46.6667 126.333z"/>
<path style="fill:#999b9f; stroke:none;" d="M50 126L51 127L50 126z"/>
<path style="fill:#686c72; stroke:none;" d="M53.6667 126.333L54.3333 126.667L53.6667 126.333z"/>
<path style="fill:#c7c9cb; stroke:none;" d="M56.6667 126.333L57.3333 126.667L56.6667 126.333z"/>
<path style="fill:#999b9f; stroke:none;" d="M68 126L69 127L68 126z"/>
<path style="fill:#686c72; stroke:none;" d="M72 126L73 127L72 126z"/>
<path style="fill:#c7c9cb; stroke:none;" d="M74.6667 126.333L75.3333 126.667L74.6667 126.333z"/>
<path style="fill:#363c45; stroke:none;" d="M78 126L79 127L78 126z"/>
<path style="fill:#c7c9cb; stroke:none;" d="M82 126L83 127L82 126z"/>
<path style="fill:#686c72; stroke:none;" d="M83 126L84 127L83 126z"/>
<path style="fill:#999b9f; stroke:none;" d="M84 126L85 127L84 126M117 126L118 127L117 126z"/>
<path style="fill:#363c45; stroke:none;" d="M128 126L129 127L128 126z"/>
<path style="fill:#c7c9cb; stroke:none;" d="M129 126L130 127L129 126M132 126L133 127L132 126M134 126L133 128L134 126z"/>
<path style="fill:#999b9f; stroke:none;" d="M137 126L138 127L137 126z"/>
<path style="fill:#363c45; stroke:none;" d="M138 126L139 127L138 126M148 126L149 127L148 126z"/>
<path style="fill:#c7c9cb; stroke:none;" d="M149 126L150 127L149 126M153 126L154 127L153 126z"/>
<path style="fill:#363c45; stroke:none;" d="M158 126L159 127L158 126z"/>
<path style="fill:#c7c9cb; stroke:none;" d="M159 126L160 127L159 126M164 126L165 127L164 126z"/>
<path style="fill:#999b9f; stroke:none;" d="M34 127L35 128L34 127z"/>
<path style="fill:#686c72; stroke:none;" d="M35 127L36 128L35 127z"/>
<path style="fill:#c7c9cb; stroke:none;" d="M46 127L47 128L46 127z"/>
<path style="fill:#363c45; stroke:none;" d="M47 127L48 128L47 127z"/>
<path style="fill:#c7c9cb; stroke:none;" d="M49 127L50 128L49 127z"/>
<path style="fill:#999b9f; stroke:none;" d="M53 127L54 128L53 127M55 127L56 128L55 127z"/>
<path style="fill:#686c72; stroke:none;" d="M56.6667 127.333L57.3333 127.667L56.6667 127.333z"/>
<path style="fill:#c7c9cb; stroke:none;" d="M67 127L68 128L67 127z"/>
<path style="fill:#686c72; stroke:none;" d="M71 127L72 128L71 127z"/>
<path style="fill:#999b9f; stroke:none;" d="M73 127L74 128L73 127z"/>
<path style="fill:#686c72; stroke:none;" d="M74.6667 127.333L75.3333 127.667L74.6667 127.333z"/>
<path style="fill:#363c45; stroke:none;" d="M80 127L80 128L83 128L80 127z"/>
<path style="fill:#999b9f; stroke:none;" d="M83 127L84 128L83 127z"/>
<path style="fill:#c7c9cb; stroke:none;" d="M112 127L113 128L112 127z"/>
<path style="fill:#363c45; stroke:none;" d="M114 127L114 128L117 128L114 127z"/>
<path style="fill:#686c72; stroke:none;" d="M117 127L118 128L117 127z"/>
<path style="fill:#c7c9cb; stroke:none;" d="M118 127L119 128L118 127z"/>
<path style="fill:#686c72; stroke:none;" d="M128.667 127.333L129.333 127.667L128.667 127.333z"/>
<path style="fill:#999b9f; stroke:none;" d="M130 127L131 128L130 127z"/>
<path style="fill:#686c72; stroke:none;" d="M134 127L135 128L134 127z"/>
<path style="fill:#363c45; stroke:none;" d="M135.667 127.333L136.333 127.667L135.667 127.333z"/>
<path style="fill:#686c72; stroke:none;" d="M137 127L138 128L137 127M148.667 127.333L149.333 127.667L148.667 127.333z"/>
<path style="fill:#999b9f; stroke:none;" d="M150 127L151 128L150 127M152 127L153 128L152 127M156 127L157 128L156 127M160 127L161 128L160 127z"/>
<path style="fill:#c7c9cb; stroke:none;" d="M162 127L163 128L162 127M165 127L166 128L165 127z"/>
</svg>
